<svg width="40" height="40" viewBox="0 0 40 40" fill="none" xmlns="http://www.w3.org/2000/svg">
<g clip-path="url(#clip0_14_119)">
<path d="M40 20C40 8.94623 31.055 0 20 0C8.94623 0 0 8.94501 0 20C0 30.9558 8.87024 40 20 40C31.084 40 40 31.0062 40 20ZM20 2.34375C29.7357 2.34375 37.6562 10.2643 37.6562 20C37.6562 23.5614 36.597 26.9846 34.6326 29.884C26.7444 21.3989 13.27 21.3837 5.36743 29.884C3.40302 26.9846 2.34375 23.5614 2.34375 20C2.34375 10.2643 10.2643 2.34375 20 2.34375ZM6.82922 31.7578C13.8428 23.891 26.1591 23.8928 33.1705 31.7578C26.1334 39.6307 13.8693 39.6332 6.82922 31.7578Z" fill="black"/>
<path d="M20 21.1719C23.877 21.1719 27.0312 18.0176 27.0312 14.1406V11.7969C27.0312 7.91992 23.877 4.76562 20 4.76562C16.123 4.76562 12.9688 7.91992 12.9688 11.7969V14.1406C12.9688 18.0176 16.123 21.1719 20 21.1719ZM15.3125 11.7969C15.3125 9.21204 17.4152 7.10938 20 7.10938C22.5848 7.10938 24.6875 9.21204 24.6875 11.7969V14.1406C24.6875 16.7255 22.5848 18.8281 20 18.8281C17.4152 18.8281 15.3125 16.7255 15.3125 14.1406V11.7969Z" fill="black"/>
</g>
<defs>
<clipPath id="clip0_14_119">
<rect width="40" height="40" fill="white"/>
</clipPath>
</defs>
</svg>
