<svg width="85" height="85" viewBox="0 0 85 85" fill="none" xmlns="http://www.w3.org/2000/svg">
<g clip-path="url(#clip0_5_5)">
<path d="M42.5506 80.8404C21.4922 80.8404 4.23964 63.5032 4.23964 42.4449C4.23964 37.7089 5.08536 33.2266 6.69222 28.998L29.1037 74.0747C29.3574 74.6667 29.7803 75.1741 30.4568 75.1741C31.1334 75.1741 31.5563 74.6667 31.81 74.0747L42.1277 50.9866C42.2123 50.7329 42.3814 50.4792 42.6351 50.4792C42.8889 50.4792 42.9734 50.7329 43.1426 50.9866L53.4603 74.0747C53.714 74.6667 54.1369 75.1741 54.8134 75.1741C55.49 75.1741 55.9129 74.6667 56.1666 74.0747L78.5781 28.998C80.1849 33.2266 81.0306 37.7089 81.0306 42.4449C80.8615 63.5032 63.6089 80.8404 42.5506 80.8404ZM42.5506 33.734C42.2969 33.734 42.2123 33.4803 42.0431 33.2266L30.034 6.16371C33.9243 4.726 38.1528 3.96485 42.5506 3.96485C46.9483 3.96485 51.1769 4.726 55.0672 6.16371L43.058 33.2266C42.8889 33.5649 42.8043 33.734 42.5506 33.734ZM30.2877 61.5581C30.034 61.5581 29.9494 61.3044 29.7803 61.0507L10.3288 21.8095C13.7962 16.4814 18.4477 11.9992 24.114 8.87001L38.1528 40.0769C38.322 40.5843 38.7448 40.7535 39.1677 40.7535H45.9334C46.4409 40.7535 46.7791 40.6689 47.0329 40.0769L61.0717 8.87001C66.6535 11.9992 71.3895 16.4814 74.8569 21.8095L55.2363 61.0507C55.1517 61.3044 54.9826 61.5581 54.7289 61.5581C54.4752 61.5581 54.3906 61.3044 54.2214 61.0507L46.8637 44.3055C46.61 43.7135 46.2717 43.6289 45.7643 43.6289H38.9986C38.4911 43.6289 38.1528 43.7135 37.8991 44.3055L30.7951 61.0507C30.7105 61.3044 30.5414 61.5581 30.2877 61.5581ZM42.5506 84.7307C65.9769 84.7307 84.8364 65.8712 84.8364 42.4449C84.8364 19.0186 65.9769 0.159134 42.5506 0.159134C19.1242 0.159134 0.264778 19.0186 0.264778 42.4449C0.264778 65.8712 19.1242 84.7307 42.5506 84.7307Z" fill="black"/>
</g>
<defs>
<clipPath id="clip0_5_5">
<rect width="85" height="85" fill="white"/>
</clipPath>
</defs>
</svg>
